<svg xmlns="http://www.w3.org/2000/svg" width="124.622" height="125.869" viewBox="0 0 124.622 125.869">
  <g id="Group_81" data-name="Group 81" transform="translate(-106.69 -1108.631)" opacity="0.2">
    <g id="Group_75" data-name="Group 75" transform="translate(106.69 1108.631)">
      <path id="Path_61" data-name="Path 61" d="M131.421,207a1.365,1.365,0,1,1-1.365-1.366A1.365,1.365,0,0,1,131.421,207Z" transform="translate(-128.69 -205.631)" fill="#fff"/>
      <path id="Path_62" data-name="Path 62" d="M165.194,207a1.366,1.366,0,1,1-1.366-1.366A1.366,1.366,0,0,1,165.194,207Z" transform="translate(-144.653 -205.631)" fill="#fff"/>
      <path id="Path_63" data-name="Path 63" d="M198.967,207a1.366,1.366,0,1,1-1.366-1.366A1.366,1.366,0,0,1,198.967,207Z" transform="translate(-160.616 -205.631)" fill="#fff"/>
      <path id="Path_64" data-name="Path 64" d="M232.74,207a1.366,1.366,0,1,1-1.366-1.366A1.366,1.366,0,0,1,232.74,207Z" transform="translate(-176.578 -205.631)" fill="#fff"/>
      <path id="Path_65" data-name="Path 65" d="M131.421,240.476a1.365,1.365,0,1,1-1.365-1.366A1.365,1.365,0,0,1,131.421,240.476Z" transform="translate(-128.69 -221.455)" fill="#fff"/>
      <path id="Path_66" data-name="Path 66" d="M165.194,240.476a1.366,1.366,0,1,1-1.366-1.366A1.366,1.366,0,0,1,165.194,240.476Z" transform="translate(-144.653 -221.455)" fill="#fff"/>
      <path id="Path_67" data-name="Path 67" d="M198.967,240.476a1.366,1.366,0,1,1-1.366-1.366A1.366,1.366,0,0,1,198.967,240.476Z" transform="translate(-160.616 -221.455)" fill="#fff"/>
      <path id="Path_68" data-name="Path 68" d="M232.74,240.476a1.366,1.366,0,1,1-1.366-1.366A1.366,1.366,0,0,1,232.74,240.476Z" transform="translate(-176.578 -221.455)" fill="#fff"/>
      <path id="Path_69" data-name="Path 69" d="M131.421,273.955a1.365,1.365,0,1,1-1.365-1.365A1.365,1.365,0,0,1,131.421,273.955Z" transform="translate(-128.69 -237.279)" fill="#fff"/>
      <path id="Path_70" data-name="Path 70" d="M165.194,273.955a1.366,1.366,0,1,1-1.366-1.365A1.366,1.366,0,0,1,165.194,273.955Z" transform="translate(-144.653 -237.279)" fill="#fff"/>
      <path id="Path_71" data-name="Path 71" d="M198.967,273.955a1.366,1.366,0,1,1-1.366-1.365A1.366,1.366,0,0,1,198.967,273.955Z" transform="translate(-160.616 -237.279)" fill="#fff"/>
      <path id="Path_72" data-name="Path 72" d="M232.74,273.955a1.366,1.366,0,1,1-1.366-1.365A1.366,1.366,0,0,1,232.74,273.955Z" transform="translate(-176.578 -237.279)" fill="#fff"/>
      <path id="Path_73" data-name="Path 73" d="M131.421,307.434a1.365,1.365,0,1,1-1.365-1.365A1.365,1.365,0,0,1,131.421,307.434Z" transform="translate(-128.69 -253.103)" fill="#fff"/>
      <path id="Path_74" data-name="Path 74" d="M165.194,307.434a1.366,1.366,0,1,1-1.366-1.365A1.366,1.366,0,0,1,165.194,307.434Z" transform="translate(-144.653 -253.103)" fill="#fff"/>
      <path id="Path_75" data-name="Path 75" d="M198.967,307.434a1.366,1.366,0,1,1-1.366-1.365A1.366,1.366,0,0,1,198.967,307.434Z" transform="translate(-160.616 -253.103)" fill="#fff"/>
      <path id="Path_76" data-name="Path 76" d="M232.74,307.434a1.366,1.366,0,1,1-1.366-1.365A1.366,1.366,0,0,1,232.74,307.434Z" transform="translate(-176.578 -253.103)" fill="#fff"/>
    </g>
    <g id="Group_75-2" data-name="Group 75" transform="translate(175.151 1108.631)">
      <path id="Path_61-2" data-name="Path 61" d="M131.421,207a1.365,1.365,0,1,1-1.365-1.366A1.365,1.365,0,0,1,131.421,207Z" transform="translate(-128.69 -205.631)" fill="#fff"/>
      <path id="Path_62-2" data-name="Path 62" d="M165.194,207a1.366,1.366,0,1,1-1.366-1.366A1.366,1.366,0,0,1,165.194,207Z" transform="translate(-144.653 -205.631)" fill="#fff"/>
      <path id="Path_63-2" data-name="Path 63" d="M198.967,207a1.366,1.366,0,1,1-1.366-1.366A1.366,1.366,0,0,1,198.967,207Z" transform="translate(-160.616 -205.631)" fill="#fff"/>
      <path id="Path_64-2" data-name="Path 64" d="M232.74,207a1.366,1.366,0,1,1-1.366-1.366A1.366,1.366,0,0,1,232.74,207Z" transform="translate(-176.578 -205.631)" fill="#fff"/>
      <path id="Path_65-2" data-name="Path 65" d="M131.421,240.476a1.365,1.365,0,1,1-1.365-1.366A1.365,1.365,0,0,1,131.421,240.476Z" transform="translate(-128.69 -221.455)" fill="#fff"/>
      <path id="Path_66-2" data-name="Path 66" d="M165.194,240.476a1.366,1.366,0,1,1-1.366-1.366A1.366,1.366,0,0,1,165.194,240.476Z" transform="translate(-144.653 -221.455)" fill="#fff"/>
      <path id="Path_67-2" data-name="Path 67" d="M198.967,240.476a1.366,1.366,0,1,1-1.366-1.366A1.366,1.366,0,0,1,198.967,240.476Z" transform="translate(-160.616 -221.455)" fill="#fff"/>
      <path id="Path_68-2" data-name="Path 68" d="M232.74,240.476a1.366,1.366,0,1,1-1.366-1.366A1.366,1.366,0,0,1,232.74,240.476Z" transform="translate(-176.578 -221.455)" fill="#fff"/>
      <path id="Path_69-2" data-name="Path 69" d="M131.421,273.955a1.365,1.365,0,1,1-1.365-1.365A1.365,1.365,0,0,1,131.421,273.955Z" transform="translate(-128.69 -237.279)" fill="#fff"/>
      <path id="Path_70-2" data-name="Path 70" d="M165.194,273.955a1.366,1.366,0,1,1-1.366-1.365A1.366,1.366,0,0,1,165.194,273.955Z" transform="translate(-144.653 -237.279)" fill="#fff"/>
      <path id="Path_71-2" data-name="Path 71" d="M198.967,273.955a1.366,1.366,0,1,1-1.366-1.365A1.366,1.366,0,0,1,198.967,273.955Z" transform="translate(-160.616 -237.279)" fill="#fff"/>
      <path id="Path_72-2" data-name="Path 72" d="M232.74,273.955a1.366,1.366,0,1,1-1.366-1.365A1.366,1.366,0,0,1,232.74,273.955Z" transform="translate(-176.578 -237.279)" fill="#fff"/>
      <path id="Path_73-2" data-name="Path 73" d="M131.421,307.434a1.365,1.365,0,1,1-1.365-1.365A1.365,1.365,0,0,1,131.421,307.434Z" transform="translate(-128.69 -253.103)" fill="#fff"/>
      <path id="Path_74-2" data-name="Path 74" d="M165.194,307.434a1.366,1.366,0,1,1-1.366-1.365A1.366,1.366,0,0,1,165.194,307.434Z" transform="translate(-144.653 -253.103)" fill="#fff"/>
      <path id="Path_75-2" data-name="Path 75" d="M198.967,307.434a1.366,1.366,0,1,1-1.366-1.365A1.366,1.366,0,0,1,198.967,307.434Z" transform="translate(-160.616 -253.103)" fill="#fff"/>
      <path id="Path_76-2" data-name="Path 76" d="M232.74,307.434a1.366,1.366,0,1,1-1.366-1.365A1.366,1.366,0,0,1,232.74,307.434Z" transform="translate(-176.578 -253.103)" fill="#fff"/>
    </g>
    <g id="Group_75-3" data-name="Group 75" transform="translate(106.69 1178.803)">
      <path id="Path_61-3" data-name="Path 61" d="M131.421,207a1.365,1.365,0,1,1-1.365-1.366A1.365,1.365,0,0,1,131.421,207Z" transform="translate(-128.69 -205.631)" fill="#fff"/>
      <path id="Path_62-3" data-name="Path 62" d="M165.194,207a1.366,1.366,0,1,1-1.366-1.366A1.366,1.366,0,0,1,165.194,207Z" transform="translate(-144.653 -205.631)" fill="#fff"/>
      <path id="Path_63-3" data-name="Path 63" d="M198.967,207a1.366,1.366,0,1,1-1.366-1.366A1.366,1.366,0,0,1,198.967,207Z" transform="translate(-160.616 -205.631)" fill="#fff"/>
      <path id="Path_64-3" data-name="Path 64" d="M232.74,207a1.366,1.366,0,1,1-1.366-1.366A1.366,1.366,0,0,1,232.74,207Z" transform="translate(-176.578 -205.631)" fill="#fff"/>
      <path id="Path_65-3" data-name="Path 65" d="M131.421,240.476a1.365,1.365,0,1,1-1.365-1.366A1.365,1.365,0,0,1,131.421,240.476Z" transform="translate(-128.69 -221.455)" fill="#fff"/>
      <path id="Path_66-3" data-name="Path 66" d="M165.194,240.476a1.366,1.366,0,1,1-1.366-1.366A1.366,1.366,0,0,1,165.194,240.476Z" transform="translate(-144.653 -221.455)" fill="#fff"/>
      <path id="Path_67-3" data-name="Path 67" d="M198.967,240.476a1.366,1.366,0,1,1-1.366-1.366A1.366,1.366,0,0,1,198.967,240.476Z" transform="translate(-160.616 -221.455)" fill="#fff"/>
      <path id="Path_68-3" data-name="Path 68" d="M232.74,240.476a1.366,1.366,0,1,1-1.366-1.366A1.366,1.366,0,0,1,232.74,240.476Z" transform="translate(-176.578 -221.455)" fill="#fff"/>
      <path id="Path_69-3" data-name="Path 69" d="M131.421,273.955a1.365,1.365,0,1,1-1.365-1.365A1.365,1.365,0,0,1,131.421,273.955Z" transform="translate(-128.69 -237.279)" fill="#fff"/>
      <path id="Path_70-3" data-name="Path 70" d="M165.194,273.955a1.366,1.366,0,1,1-1.366-1.365A1.366,1.366,0,0,1,165.194,273.955Z" transform="translate(-144.653 -237.279)" fill="#fff"/>
      <path id="Path_71-3" data-name="Path 71" d="M198.967,273.955a1.366,1.366,0,1,1-1.366-1.365A1.366,1.366,0,0,1,198.967,273.955Z" transform="translate(-160.616 -237.279)" fill="#fff"/>
      <path id="Path_72-3" data-name="Path 72" d="M232.74,273.955a1.366,1.366,0,1,1-1.366-1.365A1.366,1.366,0,0,1,232.74,273.955Z" transform="translate(-176.578 -237.279)" fill="#fff"/>
      <path id="Path_73-3" data-name="Path 73" d="M131.421,307.434a1.365,1.365,0,1,1-1.365-1.365A1.365,1.365,0,0,1,131.421,307.434Z" transform="translate(-128.69 -253.103)" fill="#fff"/>
      <path id="Path_74-3" data-name="Path 74" d="M165.194,307.434a1.366,1.366,0,1,1-1.366-1.365A1.366,1.366,0,0,1,165.194,307.434Z" transform="translate(-144.653 -253.103)" fill="#fff"/>
      <path id="Path_75-3" data-name="Path 75" d="M198.967,307.434a1.366,1.366,0,1,1-1.366-1.365A1.366,1.366,0,0,1,198.967,307.434Z" transform="translate(-160.616 -253.103)" fill="#fff"/>
      <path id="Path_76-3" data-name="Path 76" d="M232.74,307.434a1.366,1.366,0,1,1-1.366-1.365A1.366,1.366,0,0,1,232.74,307.434Z" transform="translate(-176.578 -253.103)" fill="#fff"/>
    </g>
    <g id="Group_75-4" data-name="Group 75" transform="translate(175.151 1178.803)">
      <path id="Path_61-4" data-name="Path 61" d="M131.421,207a1.365,1.365,0,1,1-1.365-1.366A1.365,1.365,0,0,1,131.421,207Z" transform="translate(-128.69 -205.631)" fill="#fff"/>
      <path id="Path_62-4" data-name="Path 62" d="M165.194,207a1.366,1.366,0,1,1-1.366-1.366A1.366,1.366,0,0,1,165.194,207Z" transform="translate(-144.653 -205.631)" fill="#fff"/>
      <path id="Path_63-4" data-name="Path 63" d="M198.967,207a1.366,1.366,0,1,1-1.366-1.366A1.366,1.366,0,0,1,198.967,207Z" transform="translate(-160.616 -205.631)" fill="#fff"/>
      <path id="Path_64-4" data-name="Path 64" d="M232.74,207a1.366,1.366,0,1,1-1.366-1.366A1.366,1.366,0,0,1,232.74,207Z" transform="translate(-176.578 -205.631)" fill="#fff"/>
      <path id="Path_65-4" data-name="Path 65" d="M131.421,240.476a1.365,1.365,0,1,1-1.365-1.366A1.365,1.365,0,0,1,131.421,240.476Z" transform="translate(-128.69 -221.455)" fill="#fff"/>
      <path id="Path_66-4" data-name="Path 66" d="M165.194,240.476a1.366,1.366,0,1,1-1.366-1.366A1.366,1.366,0,0,1,165.194,240.476Z" transform="translate(-144.653 -221.455)" fill="#fff"/>
      <path id="Path_67-4" data-name="Path 67" d="M198.967,240.476a1.366,1.366,0,1,1-1.366-1.366A1.366,1.366,0,0,1,198.967,240.476Z" transform="translate(-160.616 -221.455)" fill="#fff"/>
      <path id="Path_68-4" data-name="Path 68" d="M232.74,240.476a1.366,1.366,0,1,1-1.366-1.366A1.366,1.366,0,0,1,232.74,240.476Z" transform="translate(-176.578 -221.455)" fill="#fff"/>
      <path id="Path_69-4" data-name="Path 69" d="M131.421,273.955a1.365,1.365,0,1,1-1.365-1.365A1.365,1.365,0,0,1,131.421,273.955Z" transform="translate(-128.69 -237.279)" fill="#fff"/>
      <path id="Path_70-4" data-name="Path 70" d="M165.194,273.955a1.366,1.366,0,1,1-1.366-1.365A1.366,1.366,0,0,1,165.194,273.955Z" transform="translate(-144.653 -237.279)" fill="#fff"/>
      <path id="Path_71-4" data-name="Path 71" d="M198.967,273.955a1.366,1.366,0,1,1-1.366-1.365A1.366,1.366,0,0,1,198.967,273.955Z" transform="translate(-160.616 -237.279)" fill="#fff"/>
      <path id="Path_72-4" data-name="Path 72" d="M232.74,273.955a1.366,1.366,0,1,1-1.366-1.365A1.366,1.366,0,0,1,232.74,273.955Z" transform="translate(-176.578 -237.279)" fill="#fff"/>
      <path id="Path_73-4" data-name="Path 73" d="M131.421,307.434a1.365,1.365,0,1,1-1.365-1.365A1.365,1.365,0,0,1,131.421,307.434Z" transform="translate(-128.69 -253.103)" fill="#fff"/>
      <path id="Path_74-4" data-name="Path 74" d="M165.194,307.434a1.366,1.366,0,1,1-1.366-1.365A1.366,1.366,0,0,1,165.194,307.434Z" transform="translate(-144.653 -253.103)" fill="#fff"/>
      <path id="Path_75-4" data-name="Path 75" d="M198.967,307.434a1.366,1.366,0,1,1-1.366-1.365A1.366,1.366,0,0,1,198.967,307.434Z" transform="translate(-160.616 -253.103)" fill="#fff"/>
      <path id="Path_76-4" data-name="Path 76" d="M232.74,307.434a1.366,1.366,0,1,1-1.366-1.365A1.366,1.366,0,0,1,232.74,307.434Z" transform="translate(-176.578 -253.103)" fill="#fff"/>
    </g>
  </g>
</svg>
