<svg xmlns="http://www.w3.org/2000/svg" width="24" height="24" viewBox="0 0 24 24">
  <path id="email" d="M16.374-18.55C15.388-19.336,13.731-21,12-21s-3.349,1.63-4.374,2.45C6-17.263,2.492-14.43.825-13.065A2.243,2.243,0,0,0,0-11.324V.75A2.25,2.25,0,0,0,2.25,3h19.5A2.25,2.25,0,0,0,24,.75V-11.324a2.243,2.243,0,0,0-.825-1.741C21.508-14.43,18-17.263,16.374-18.55ZM21.75,1.5H2.25A.75.75,0,0,1,1.5.75V-11.336a.75.75,0,0,1,.276-.581c1.232-1.006,5.708-4.605,6.783-5.458C9.385-18.034,10.89-19.5,12-19.5s2.615,1.466,3.441,2.124c1.075.853,5.552,4.453,6.783,5.459a.748.748,0,0,1,.276.581h0V.75A.75.75,0,0,1,21.75,1.5ZM21.34-8.64,21.1-8.931a.562.562,0,0,0-.79-.083c-1.067.861-2.579,2.069-4.872,3.89C14.651-4.494,13.088-2.983,12-3c-1.088.018-2.651-1.494-3.441-2.124-2.293-1.82-3.805-3.028-4.872-3.89a.562.562,0,0,0-.79.083L2.66-8.64a.562.562,0,0,0,.083.792c1.07.864,2.584,2.074,4.882,3.9.961.767,2.66,2.462,4.374,2.45,1.708.012,3.388-1.662,4.374-2.45,2.3-1.824,3.812-3.034,4.882-3.9A.562.562,0,0,0,21.34-8.64Z" transform="translate(0 21)" fill="#fff"/>
</svg>
