<svg xmlns="http://www.w3.org/2000/svg" width="67.411" height="39" viewBox="0 0 67.411 39">
  <g id="fevicon" transform="translate(-166.5 -35.5)">
    <rect id="Rectangle_1" data-name="Rectangle 1" width="33" height="4" transform="translate(166.5 35.5)" fill="#ff002e"/>
    <path id="Path_7744" data-name="Path 7744" d="M2.909,0H19.661V-5.048H9.182V-24.661H2.909ZM23.545,0H33.9a12.59,12.59,0,0,0,6.285-1.455,9.4,9.4,0,0,0,3.91-4.26,15.8,15.8,0,0,0,1.338-6.842v-.034a14.512,14.512,0,0,0-1.352-6.552,9.315,9.315,0,0,0-3.925-4.108A12.868,12.868,0,0,0,33.9-24.661H23.545Zm6.273-5.048V-19.612h2.951a6.537,6.537,0,0,1,3.379.828,5.364,5.364,0,0,1,2.15,2.423,9.119,9.119,0,0,1,.746,3.882v.034a10.16,10.16,0,0,1-.724,4.079A5.24,5.24,0,0,1,36.2-5.882a6.589,6.589,0,0,1-3.429.833ZM52.862-7.216h7.484a10.166,10.166,0,0,0,4.789-1.067A7.671,7.671,0,0,0,68.29-11.3,9.062,9.062,0,0,0,69.411-15.9v-.034a9.112,9.112,0,0,0-1.122-4.6,7.756,7.756,0,0,0-3.154-3.044,10.045,10.045,0,0,0-4.789-1.083H52.862v4.818h5.977a4.525,4.525,0,0,1,3.112.994,3.71,3.71,0,0,1,1.118,2.927v.034a3.736,3.736,0,0,1-1.118,2.925,4.481,4.481,0,0,1-3.112,1.009H52.862ZM49.726,0H56V-24.661H49.726Z" transform="translate(164.5 74.5)" fill="#1d1d23"/>
  </g>
</svg>
