<svg xmlns="http://www.w3.org/2000/svg" xmlns:xlink="http://www.w3.org/1999/xlink" width="58" height="58" viewBox="0 0 58 58">
  <defs>
    <linearGradient id="linear-gradient" x1="-0.075" x2="0.977" y2="1.252" gradientUnits="objectBoundingBox">
      <stop offset="0" stop-color="#28282e"/>
      <stop offset="1" stop-color="#23232c"/>
    </linearGradient>
  </defs>
  <g id="Group_88" data-name="Group 88" transform="translate(-656 -1284)">
    <circle id="Ellipse_18" data-name="Ellipse 18" cx="29" cy="29" r="29" transform="translate(656 1284)" fill="url(#linear-gradient)"/>
    <path id="Path_7746" data-name="Path 7746" d="M15.352-8.248,10.027-16.84a.779.779,0,0,0-.652-.348.779.779,0,0,0-.652.348L3.4-8.248a1.517,1.517,0,0,0-.269.959A6.261,6.261,0,0,0,9.375-1.562a6.261,6.261,0,0,0,6.246-5.726A1.517,1.517,0,0,0,15.352-8.248ZM9.375-3.125A4.746,4.746,0,0,1,4.942-6.25H13.79A4.722,4.722,0,0,1,9.375-3.125ZM4.967-7.812l4.41-7.117,4.44,7.117Zm5.58,9.375H.781v-17.3A3.118,3.118,0,0,0,3.125-18.75h7.422a.391.391,0,0,0,.391-.391v-.781a.391.391,0,0,0-.391-.391H2.68a2.512,2.512,0,0,0-.933-1.029A3.111,3.111,0,0,0,0-21.875a3.111,3.111,0,0,0-1.747.534,2.512,2.512,0,0,0-.933,1.029h-7.867a.391.391,0,0,0-.391.391v.781a.391.391,0,0,0,.391.391h7.422A3.118,3.118,0,0,0-.781-15.735v17.3h-9.766a.391.391,0,0,0-.391.391v.781a.391.391,0,0,0,.391.391H10.547a.391.391,0,0,0,.391-.391V1.953A.391.391,0,0,0,10.547,1.562ZM-1.563-18.75A1.563,1.563,0,0,1,0-20.312,1.563,1.563,0,0,1,1.562-18.75,1.563,1.563,0,0,1,0-17.187,1.563,1.563,0,0,1-1.563-18.75ZM-3.129-7.289A1.517,1.517,0,0,0-3.4-8.248L-8.723-16.84a.779.779,0,0,0-.652-.348.779.779,0,0,0-.652.348l-5.325,8.592a1.517,1.517,0,0,0-.269.959A6.261,6.261,0,0,0-9.375-1.562,6.261,6.261,0,0,0-3.129-7.289ZM-9.373-14.93l4.44,7.117h-8.85Zm-4.435,8.68H-4.96A4.722,4.722,0,0,1-9.375-3.125,4.746,4.746,0,0,1-13.808-6.25Z" transform="translate(684.625 1322.875)" fill="#ff002d"/>
  </g>
</svg>
