<svg xmlns="http://www.w3.org/2000/svg" xmlns:xlink="http://www.w3.org/1999/xlink" width="58" height="58" viewBox="0 0 58 58">
  <defs>
    <linearGradient id="linear-gradient" x1="-0.075" x2="0.977" y2="1.252" gradientUnits="objectBoundingBox">
      <stop offset="0" stop-color="#28282e"/>
      <stop offset="1" stop-color="#23232c"/>
    </linearGradient>
  </defs>
  <g id="Group_89" data-name="Group 89" transform="translate(-305 -1284)">
    <circle id="Ellipse_16" data-name="Ellipse 16" cx="29" cy="29" r="29" transform="translate(305 1284)" fill="url(#linear-gradient)"/>
    <path id="Path_7745" data-name="Path 7745" d="M3.852-15.936l2.135-3.51a1.562,1.562,0,0,0-1.3-2.429H-4.68a1.562,1.562,0,0,0-1.3,2.43l2.127,3.51C-12.953-10.127-12.5-2.717-12.5-1.758A5.136,5.136,0,0,0-7.141,3.125H7.142A5.135,5.135,0,0,0,12.5-1.758C12.5-2.7,12.9-10.156,3.852-15.936ZM-4.68-20.312H4.687l-2.4,3.906H-2.288ZM10.937-1.758a3.585,3.585,0,0,1-3.793,3.32H-7.141a3.585,3.585,0,0,1-3.793-3.32v-.164c-.045-2.923.977-8.447,8.248-12.922H2.689C9.943-10.378,10.975-4.837,10.937-1.9ZM1.446-6.7l-2.393-.71a.679.679,0,0,1-.467-.668.663.663,0,0,1,.627-.694H.706a1.307,1.307,0,0,1,.68.2.433.433,0,0,0,.245.075.435.435,0,0,0,.292-.112l.622-.594a.416.416,0,0,0,.132-.3.416.416,0,0,0-.163-.331,3.084,3.084,0,0,0-1.668-.594V-11.3a.424.424,0,0,0-.424-.421H-.431a.425.425,0,0,0-.424.421v.852A2.355,2.355,0,0,0-3.124-8.075,2.383,2.383,0,0,0-1.445-5.792l2.393.71a.679.679,0,0,1,.468.667.663.663,0,0,1-.627.694H-.706a1.3,1.3,0,0,1-.68-.2.434.434,0,0,0-.245-.075.435.435,0,0,0-.293.112l-.627.589a.416.416,0,0,0-.131.3.416.416,0,0,0,.163.331A3.087,3.087,0,0,0-.85-2.061V-1.2a.425.425,0,0,0,.424.421H.426A.425.425,0,0,0,.85-1.2v-.847A2.363,2.363,0,0,0,3.124-4.422,2.38,2.38,0,0,0,1.446-6.7Z" transform="translate(334.5 1322.875)" fill="#ff002d"/>
  </g>
</svg>
