<svg xmlns="http://www.w3.org/2000/svg" xmlns:xlink="http://www.w3.org/1999/xlink" width="58" height="58" viewBox="0 0 58 58">
  <defs>
    <linearGradient id="linear-gradient" x1="-0.075" x2="0.977" y2="1.252" gradientUnits="objectBoundingBox">
      <stop offset="0" stop-color="#28282e"/>
      <stop offset="1" stop-color="#23232c"/>
    </linearGradient>
  </defs>
  <g id="Group_87" data-name="Group 87" transform="translate(-1017 -1284)">
    <circle id="Ellipse_19" data-name="Ellipse 19" cx="29" cy="29" r="29" transform="translate(1017 1284)" fill="url(#linear-gradient)"/>
    <path id="Path_7747" data-name="Path 7747" d="M-7.813-14.844a.783.783,0,0,0,.432.7l1.85.925.926,1.851a.782.782,0,0,0,.7.432.782.782,0,0,0,.7-.432l.925-1.851,1.851-.925a.781.781,0,0,0,.432-.7.782.782,0,0,0-.432-.7l-1.851-.925-.925-1.851a.782.782,0,0,0-.7-.432.782.782,0,0,0-.7.432l-.926,1.851-1.85.925A.783.783,0,0,0-7.813-14.844Zm3.213-.343a.787.787,0,0,0,.35-.35l.343-.686.342.686a.786.786,0,0,0,.35.35l.685.343-.685.343a.787.787,0,0,0-.35.35l-.342.686-.343-.686a.785.785,0,0,0-.35-.35l-.685-.343Zm3.037,5.811a.783.783,0,0,0,.432.7L1.24-7.491,2.426-5.12a.782.782,0,0,0,.7.432.782.782,0,0,0,.7-.432L5.009-7.491,7.38-8.676a.782.782,0,0,0,.432-.7.783.783,0,0,0-.432-.7L5.009-11.259,3.823-13.63a.813.813,0,0,0-1.4,0L1.24-11.259l-2.371,1.186A.783.783,0,0,0-1.563-9.375Zm3.735-.6a.788.788,0,0,0,.35-.35l.6-1.206.6,1.206a.786.786,0,0,0,.35.35l1.207.6-1.207.6a.788.788,0,0,0-.35.35l-.6,1.206-.6-1.206a.785.785,0,0,0-.35-.35l-1.207-.6Zm8.765,7.244V-20.7a1.169,1.169,0,0,0-1.172-1.172h-16.8a3.905,3.905,0,0,0-3.906,3.906V0A3.125,3.125,0,0,0-7.813,3.125H10.352a.588.588,0,0,0,.586-.586V2.148a.588.588,0,0,0-.586-.586H10.19a9.293,9.293,0,0,1,.02-3.213A1.177,1.177,0,0,0,10.937-2.734ZM8.8,1.562H-7.813A1.563,1.563,0,0,1-9.375,0,1.563,1.563,0,0,1-7.813-1.562H8.8A11.164,11.164,0,0,0,8.8,1.562Zm.571-4.687H-7.813a3.092,3.092,0,0,0-1.562.434V-17.969a2.344,2.344,0,0,1,2.344-2.344H9.375Z" transform="translate(1045.938 1322.875)" fill="#ff002d"/>
  </g>
</svg>
