<svg xmlns="http://www.w3.org/2000/svg" width="24.5" height="24.5" viewBox="0 0 24.5 24.5">
  <path id="linkedin" d="M22.75-22.75H1.745A1.758,1.758,0,0,0,0-20.984V-.016A1.758,1.758,0,0,0,1.745,1.75H22.75A1.762,1.762,0,0,0,24.5-.016V-20.984A1.762,1.762,0,0,0,22.75-22.75ZM7.4-1.75H3.773V-13.442H7.41V-1.75ZM5.589-15.039a2.106,2.106,0,0,1-2.105-2.105A2.106,2.106,0,0,1,5.589-19.25a2.11,2.11,0,0,1,2.105,2.105A2.1,2.1,0,0,1,5.589-15.039ZM21.016-1.75H17.385V-7.437c0-1.356-.027-3.1-1.887-3.1-1.892,0-2.182,1.477-2.182,3V-1.75H9.685V-13.442h3.484v1.6h.049a3.825,3.825,0,0,1,3.44-1.887c3.675,0,4.359,2.423,4.359,5.573Z" transform="translate(0 22.75)" fill="#fff"/>
</svg>
