<svg xmlns="http://www.w3.org/2000/svg" width="25.375" height="25.375" viewBox="0 0 25.375 25.375">
  <path id="medium" d="M0-23.562V1.812H25.375V-23.562Zm21.082,6.01-1.359,1.3a.4.4,0,0,0-.153.38v9.589a.39.39,0,0,0,.153.38l1.331,1.3v.289H14.37v-.278l1.376-1.337c.136-.136.136-.176.136-.38v-7.754l-3.829,9.72h-.515L7.08-14.058v6.514a.9.9,0,0,0,.249.748l1.79,2.169v.289H4.033v-.289L5.823-6.8a.867.867,0,0,0,.232-.748v-7.533a.647.647,0,0,0-.215-.555l-1.592-1.92v-.289H9.193L13.01-9.459l3.359-8.377h4.713Z" transform="translate(0 23.563)" fill="#fff"/>
</svg>
