<svg xmlns="http://www.w3.org/2000/svg" xmlns:xlink="http://www.w3.org/1999/xlink" width="206" height="63" viewBox="0 0 206 63">
  <defs>
    <linearGradient id="linear-gradient" x1="-0.075" x2="0.977" y2="1.252" gradientUnits="objectBoundingBox">
      <stop offset="0" stop-color="#17171d"/>
      <stop offset="1" stop-color="#282832"/>
    </linearGradient>
  </defs>
  <g id="Group_2" data-name="Group 2" transform="translate(-135 -1701)">
    <g id="Rectangle_13" data-name="Rectangle 13" transform="translate(135 1701)" stroke="rgba(255,255,255,0.1)" stroke-width="1" fill="url(#linear-gradient)">
      <rect width="206" height="63" rx="31.5" stroke="none"/>
      <rect x="0.5" y="0.5" width="205" height="62" rx="31" fill="none"/>
    </g>
    <text id="twitter" transform="translate(221 1739)" fill="#fff" font-size="17" font-family="SourceSansPro-Regular, Source Sans Pro" opacity="0.6"><tspan x="0" y="0">Twitter</tspan></text>
    <path id="Path_7745" data-name="Path 7745" d="M25.122-16.2A12.335,12.335,0,0,0,28-19.17a11.5,11.5,0,0,1-3.3.888,5.723,5.723,0,0,0,2.523-3.162,11.3,11.3,0,0,1-3.642,1.386,5.725,5.725,0,0,0-4.193-1.812,5.736,5.736,0,0,0-5.739,5.739,6.478,6.478,0,0,0,.142,1.315A16.312,16.312,0,0,1,1.954-20.822a5.7,5.7,0,0,0-.782,2.9,5.734,5.734,0,0,0,2.558,4.779,5.779,5.779,0,0,1-2.594-.728v.071a5.739,5.739,0,0,0,4.6,5.632,6.068,6.068,0,0,1-1.51.2,7.233,7.233,0,0,1-1.084-.089A5.749,5.749,0,0,0,8.51-4.086,11.493,11.493,0,0,1,1.386-1.634,11.876,11.876,0,0,1,0-1.706,16.217,16.217,0,0,0,8.812.871C19.365.871,25.14-7.871,25.14-15.457,25.14-15.705,25.14-15.954,25.122-16.2Z" transform="translate(170 1744)" fill="#fff"/>
  </g>
</svg>
