<svg xmlns="http://www.w3.org/2000/svg" xmlns:xlink="http://www.w3.org/1999/xlink" width="206" height="63" viewBox="0 0 206 63">
  <defs>
    <linearGradient id="linear-gradient" x1="-0.075" x2="0.977" y2="1.252" gradientUnits="objectBoundingBox">
      <stop offset="0" stop-color="#17171d"/>
      <stop offset="1" stop-color="#282832"/>
    </linearGradient>
  </defs>
  <g id="Group_3" data-name="Group 3" transform="translate(-345 -1701)">
    <g id="Rectangle_14" data-name="Rectangle 14" transform="translate(345 1701)" stroke="rgba(255,255,255,0.1)" stroke-width="1" fill="url(#linear-gradient)">
      <rect width="206" height="63" rx="31.5" stroke="none"/>
      <rect x="0.5" y="0.5" width="205" height="62" rx="31" fill="none"/>
    </g>
    <text id="medium" transform="translate(429 1739)" fill="#fff" font-size="17" font-family="SourceSansPro-Regular, Source Sans Pro" opacity="0.6"><tspan x="0" y="0">Medium</tspan></text>
    <path id="Path_7746" data-name="Path 7746" d="M0-23.562V1.812H25.375V-23.562Zm21.082,6.01-1.359,1.3a.4.4,0,0,0-.153.38v9.589a.39.39,0,0,0,.153.38l1.331,1.3v.289H14.37v-.278l1.376-1.337c.136-.136.136-.176.136-.38v-7.754l-3.829,9.72h-.515L7.08-14.058v6.514a.9.9,0,0,0,.249.748l1.79,2.169v.289H4.033v-.289L5.823-6.8a.867.867,0,0,0,.232-.748v-7.533a.647.647,0,0,0-.215-.555l-1.592-1.92v-.289H9.193L13.01-9.459l3.359-8.377h4.713Z" transform="translate(382 1744)" fill="#fff"/>
  </g>
</svg>
