<svg xmlns="http://www.w3.org/2000/svg" xmlns:xlink="http://www.w3.org/1999/xlink" width="206" height="63" viewBox="0 0 206 63">
  <defs>
    <linearGradient id="linear-gradient" x1="-0.075" x2="0.977" y2="1.252" gradientUnits="objectBoundingBox">
      <stop offset="0" stop-color="#17171d"/>
      <stop offset="1" stop-color="#282832"/>
    </linearGradient>
  </defs>
  <g id="Group_4" data-name="Group 4" transform="translate(-590 -1701)">
    <g id="Rectangle_15" data-name="Rectangle 15" transform="translate(590 1701)" stroke="rgba(255,255,255,0.1)" stroke-width="1" fill="url(#linear-gradient)">
      <rect width="206" height="63" rx="31.5" stroke="none"/>
      <rect x="0.5" y="0.5" width="205" height="62" rx="31" fill="none"/>
    </g>
    <text id="instagram" transform="translate(672 1739)" fill="#fff" font-size="17" font-family="SourceSansPro-Regular, Source Sans Pro" opacity="0.6"><tspan x="0" y="0">Instagram</tspan></text>
    <path id="Path_7747" data-name="Path 7747" d="M12.693-17.389a6.5,6.5,0,0,0-6.508,6.508,6.5,6.5,0,0,0,6.508,6.508A6.5,6.5,0,0,0,19.2-10.881,6.5,6.5,0,0,0,12.693-17.389Zm0,10.739a4.239,4.239,0,0,1-4.231-4.231,4.235,4.235,0,0,1,4.231-4.231,4.235,4.235,0,0,1,4.231,4.231A4.239,4.239,0,0,1,12.693-6.65Zm8.292-11.005a1.518,1.518,0,0,0-1.518-1.518,1.518,1.518,0,0,0-1.518,1.518,1.514,1.514,0,0,0,1.518,1.518A1.514,1.514,0,0,0,20.985-17.655Zm4.31,1.541a7.512,7.512,0,0,0-2.05-5.319,7.562,7.562,0,0,0-5.319-2.05c-2.1-.119-8.377-.119-10.473,0a7.55,7.55,0,0,0-5.319,2.045A7.537,7.537,0,0,0,.085-16.12c-.119,2.1-.119,8.377,0,10.473A7.512,7.512,0,0,0,2.135-.329a7.571,7.571,0,0,0,5.319,2.05c2.1.119,8.377.119,10.473,0a7.512,7.512,0,0,0,5.319-2.05A7.562,7.562,0,0,0,25.3-5.647C25.415-7.743,25.415-14.019,25.3-16.114ZM22.588-3.4A4.283,4.283,0,0,1,20.175-.986c-1.671.663-5.636.51-7.482.51s-5.817.147-7.482-.51A4.283,4.283,0,0,1,2.8-3.4c-.663-1.671-.51-5.636-.51-7.482s-.147-5.817.51-7.482a4.283,4.283,0,0,1,2.413-2.413c1.671-.663,5.636-.51,7.482-.51s5.817-.147,7.482.51a4.283,4.283,0,0,1,2.413,2.413c.663,1.671.51,5.636.51,7.482S23.251-5.064,22.588-3.4Z" transform="translate(625 1744)" fill="#fff"/>
  </g>
</svg>
