<svg xmlns="http://www.w3.org/2000/svg" xmlns:xlink="http://www.w3.org/1999/xlink" width="206" height="63" viewBox="0 0 206 63">
  <defs>
    <linearGradient id="linear-gradient" x1="-0.075" x2="0.977" y2="1.252" gradientUnits="objectBoundingBox">
      <stop offset="0" stop-color="#17171d"/>
      <stop offset="1" stop-color="#282832"/>
    </linearGradient>
  </defs>
  <g id="Group_6" data-name="Group 6" transform="translate(-1070 -1701)">
    <g id="Rectangle_17" data-name="Rectangle 17" transform="translate(1070 1701)" stroke="rgba(255,255,255,0.1)" stroke-width="1" fill="url(#linear-gradient)">
      <rect width="206" height="63" rx="31.5" stroke="none"/>
      <rect x="0.5" y="0.5" width="205" height="62" rx="31" fill="none"/>
    </g>
    <text id="linkedin" transform="translate(1153 1739)" fill="#fff" font-size="17" font-family="SourceSansPro-Regular, Source Sans Pro" opacity="0.6"><tspan x="0" y="0">Linkedin</tspan></text>
    <path id="Path_7749" data-name="Path 7749" d="M22.75-22.75H1.745A1.758,1.758,0,0,0,0-20.984V-.016A1.758,1.758,0,0,0,1.745,1.75H22.75A1.762,1.762,0,0,0,24.5-.016V-20.984A1.762,1.762,0,0,0,22.75-22.75ZM7.4-1.75H3.773V-13.442H7.41V-1.75ZM5.589-15.039a2.106,2.106,0,0,1-2.105-2.105A2.106,2.106,0,0,1,5.589-19.25a2.11,2.11,0,0,1,2.105,2.105A2.1,2.1,0,0,1,5.589-15.039ZM21.016-1.75H17.385V-7.437c0-1.356-.027-3.1-1.887-3.1-1.892,0-2.182,1.477-2.182,3V-1.75H9.685V-13.442h3.484v1.6h.049a3.825,3.825,0,0,1,3.44-1.887c3.675,0,4.359,2.423,4.359,5.573Z" transform="translate(1106 1744)" fill="#fff"/>
  </g>
</svg>
