<svg xmlns="http://www.w3.org/2000/svg" width="12.25" height="12.25" viewBox="0 0 12.25 12.25">
  <path id="team-linkedin" d="M11.375-11.375H.872A.879.879,0,0,0,0-10.492V-.008A.879.879,0,0,0,.872.875h10.5a.881.881,0,0,0,.875-.883V-10.492A.881.881,0,0,0,11.375-11.375ZM3.7-.875H1.887V-6.721H3.705V-.875ZM2.795-7.52A1.053,1.053,0,0,1,1.742-8.572,1.053,1.053,0,0,1,2.795-9.625,1.055,1.055,0,0,1,3.847-8.572,1.051,1.051,0,0,1,2.795-7.52ZM10.508-.875H8.693V-3.719c0-.678-.014-1.55-.943-1.55-.946,0-1.091.738-1.091,1.5V-.875H4.843V-6.721H6.584v.8h.025a1.912,1.912,0,0,1,1.72-.943c1.838,0,2.179,1.211,2.179,2.786Z" transform="translate(0 11.375)" opacity="0.6"/>
</svg>
