<svg xmlns="http://www.w3.org/2000/svg" width="30.933" height="21.75" viewBox="0 0 30.933 21.75">
  <path id="Path_7748" data-name="Path 7748" d="M31.133-18.347A3.887,3.887,0,0,0,28.4-21.1c-2.412-.651-12.085-.651-12.085-.651s-9.673,0-12.085.651a3.887,3.887,0,0,0-2.735,2.753,40.773,40.773,0,0,0-.646,7.494,40.774,40.774,0,0,0,.646,7.494A3.829,3.829,0,0,0,4.227-.651C6.639,0,16.312,0,16.312,0S25.986,0,28.4-.651a3.829,3.829,0,0,0,2.735-2.709,40.774,40.774,0,0,0,.646-7.494A40.774,40.774,0,0,0,31.133-18.347ZM13.149-6.254v-9.2l8.085,4.6Z" transform="translate(-0.846 21.75)" fill="#fff"/>
</svg>
